<svg width="87" height="22" viewBox="0 0 87 22" fill="none" xmlns="http://www.w3.org/2000/svg">
<mask id="mask0_5_100" style="mask-type:luminance" maskUnits="userSpaceOnUse" x="0" y="0" width="87" height="22">
<path d="M86.9303 0H0V22H86.9303V0Z" fill="white"/>
</mask>
<g mask="url(#mask0_5_100)">
<path d="M37.7837 10.9868C36.9233 11.8435 35.8591 12.2732 34.591 12.2732C33.3228 12.2732 32.2586 11.8435 31.3982 10.9868C30.5378 10.1301 30.1063 9.07043 30.1063 7.80516C30.1063 6.53988 30.5351 5.49866 31.3982 4.64196C32.2692 3.77472 33.3361 3.33978 34.591 3.33978C35.8458 3.33978 36.9128 3.77472 37.7837 4.64196C38.6547 5.5092 39.0916 6.56624 39.0916 7.80516C39.0916 9.0441 38.6547 10.1169 37.7837 10.9868ZM32.9416 9.47901C33.3837 9.91922 33.9318 10.138 34.5883 10.138C35.2449 10.138 35.7955 9.91922 36.2376 9.47901C36.6798 9.03881 36.8995 8.47994 36.8995 7.80516C36.8995 7.13038 36.6798 6.56887 36.2376 6.1313C35.7955 5.69109 35.2475 5.4723 34.5883 5.4723C33.9291 5.4723 33.3811 5.69109 32.9416 6.1313C32.5101 6.58205 32.2957 7.14089 32.2957 7.80516C32.2957 8.46942 32.5101 9.02829 32.9416 9.47901Z" fill="white"/>
<path d="M37.7308 20.7136C36.8704 21.5703 35.8062 22 34.5381 22C33.2699 22 32.2057 21.5703 31.3453 20.7136C30.4849 19.857 30.0533 18.7973 30.0533 17.532C30.0533 16.2668 30.4823 15.2255 31.3453 14.3688C32.2163 13.5016 33.2832 13.0667 34.5381 13.0667C35.7929 13.0667 36.8599 13.5016 37.7308 14.3688C38.6019 15.2361 39.0386 16.2931 39.0386 17.532C39.0386 18.7709 38.6019 19.8438 37.7308 20.7136ZM32.8887 19.2085C33.3308 19.6487 33.8789 19.8675 34.5354 19.8675C35.1919 19.8675 35.7426 19.6487 36.1848 19.2085C36.6269 18.7683 36.8466 18.2095 36.8466 17.5346C36.8466 16.8599 36.6269 16.2984 36.1848 15.8608C35.7426 15.4206 35.1946 15.2018 34.5354 15.2018C33.8762 15.2018 33.3282 15.4206 32.8887 15.8608C32.4572 16.3116 32.2428 16.8704 32.2428 17.5346C32.2428 18.1989 32.4572 18.7578 32.8887 19.2085Z" fill="white"/>
<path d="M9.36915 3.38727C10.3408 3.38727 11.1165 3.70095 11.6989 4.33095C12.2813 4.96096 12.5725 5.80448 12.5725 6.86151V12.057H10.3857V7.01176C10.3857 6.50565 10.2613 6.11288 10.0125 5.83084C9.76361 5.54878 9.41416 5.40908 8.96149 5.40908C8.46372 5.40908 8.07726 5.57251 7.8019 5.89937C7.52392 6.22623 7.38624 6.69808 7.38624 7.31756V12.057H5.1995V7.01176C5.1995 6.50565 5.07507 6.11288 4.82622 5.83084C4.57736 5.54878 4.22791 5.40908 3.7752 5.40908C3.29073 5.40908 2.90156 5.57251 2.61563 5.89937C2.32707 6.22623 2.18411 6.69808 2.18411 7.31756V12.057H0V3.62451H2.18676V4.51811C2.69506 3.76422 3.47869 3.38727 4.54294 3.38727C5.6072 3.38727 6.35112 3.79321 6.84619 4.60246C7.41006 3.79321 8.25196 3.38727 9.37184 3.38727H9.36915Z" fill="white"/>
<path d="M21.6531 11.0053C20.7821 11.8646 19.7205 12.2969 18.4683 12.2969C17.216 12.2969 16.1544 11.8672 15.2914 11.0053C14.4283 10.1459 13.9941 9.09159 13.9941 7.84212C13.9941 6.59263 14.4257 5.53824 15.2914 4.6789C16.1544 3.81957 17.2134 3.38727 18.4683 3.38727C19.7232 3.38727 20.7848 3.81694 21.6531 4.6789C22.5241 5.53824 22.9582 6.59263 22.9582 7.84212C22.9582 9.09159 22.5241 10.1459 21.6531 11.0053ZM16.8322 9.51069C17.2664 9.94828 17.8117 10.1697 18.4683 10.1697C19.1249 10.1697 19.6702 9.95089 20.1123 9.51069C20.5544 9.07048 20.7741 8.51429 20.7741 7.83944C20.7741 7.16466 20.5544 6.60845 20.1123 6.16824C19.6702 5.72803 19.1249 5.50924 18.4683 5.50924C17.8117 5.50924 17.269 5.72803 16.8322 6.16824C16.398 6.60581 16.1809 7.16466 16.1809 7.83944C16.1809 8.51429 16.398 9.07048 16.8322 9.51069Z" fill="white"/>
<path d="M26.6859 5.07426C26.8897 4.53388 27.2259 4.13057 27.6945 3.85907C28.1631 3.58756 28.6847 3.45312 29.2618 3.45312V5.88351C28.5946 5.80443 27.999 5.93886 27.4748 6.28945C26.9506 6.63741 26.6859 7.21735 26.6859 8.0266V12.0596H24.4991V3.62446H26.6859V5.07426Z" fill="white"/>
<path d="M42.4379 8.73571C42.7318 9.79274 43.5287 10.3225 44.8259 10.3225C45.6624 10.3225 46.2952 10.0405 46.7241 9.47904L48.4873 10.4912C47.6507 11.6959 46.4196 12.2969 44.7941 12.2969C43.3936 12.2969 42.2685 11.8752 41.4213 11.0316C40.5741 10.1881 40.1505 9.1258 40.1505 7.8421C40.1505 6.55835 40.5688 5.51186 41.4054 4.66307C42.242 3.81429 43.3142 3.38989 44.6247 3.38989C45.8663 3.38989 46.8935 3.81692 47.7009 4.67098C48.5084 5.52504 48.9135 6.58208 48.9135 7.8421C48.9135 8.12411 48.8843 8.42201 48.8288 8.73571H42.4405H42.4379ZM42.4035 7.04866H46.7241C46.5996 6.474 46.3428 6.04697 45.9537 5.76756C45.5645 5.4855 45.1197 5.3458 44.6247 5.3458C44.0369 5.3458 43.5525 5.49605 43.1686 5.79391C42.7847 6.09178 42.5306 6.51091 42.4062 7.05127L42.4035 7.04866Z" fill="white"/>
<path d="M55.1454 3.38727C56.072 3.38727 56.8371 3.69568 57.4407 4.31514C58.0443 4.9346 58.3461 5.78866 58.3461 6.87997V12.0597H56.1594V7.15146C56.1594 6.59 56.0058 6.15769 55.7014 5.85983C55.3969 5.56196 54.9892 5.41171 54.4809 5.41171C53.917 5.41171 53.4643 5.58569 53.1254 5.93364C52.7866 6.28159 52.6172 6.80615 52.6172 7.50209V12.057H50.4304V3.62451H52.6172V4.56819C53.1466 3.78003 53.9885 3.38727 55.1428 3.38727H55.1454Z" fill="white"/>
<path d="M64.7688 2.10614C63.5722 2.01652 62.9739 2.49363 62.9739 3.54012V3.62447H64.7688V5.71745H62.9739V12.0597H60.7871V5.71745H59.5667V3.62447H60.7871V3.54012C60.7871 2.34865 61.1206 1.44187 61.7878 0.825045C62.455 0.205586 63.4478 -0.0632848 64.7688 0.015795V2.10877V2.10614Z" fill="white"/>
<path d="M67.2944 8.73571C67.5882 9.79274 68.3851 10.3225 69.6822 10.3225C70.519 10.3225 71.1515 10.0405 71.5803 9.47904L73.3438 10.4912C72.5069 11.6959 71.2758 12.2969 69.6504 12.2969C68.25 12.2969 67.1249 11.8752 66.2778 11.0316C65.4306 10.1881 65.007 9.1258 65.007 7.8421C65.007 6.55835 65.4253 5.51186 66.2619 4.66307C67.0985 3.81429 68.1706 3.38989 69.4812 3.38989C70.7227 3.38989 71.7501 3.81692 72.5573 4.67098C73.3652 5.52504 73.7698 6.58208 73.7698 7.8421C73.7698 8.12411 73.7408 8.42201 73.6849 8.73571H67.297H67.2944ZM67.26 7.04866H71.5803C71.456 6.474 71.1991 6.04697 70.8104 5.76756C70.421 5.4855 69.9763 5.3458 69.4812 5.3458C68.8934 5.3458 68.4089 5.49605 68.025 5.79391C67.6412 6.09178 67.387 6.51091 67.2626 7.05127L67.26 7.04866Z" fill="white"/>
<path d="M76.9681 6.01793C76.9681 6.242 77.1186 6.42652 77.4183 6.56622C77.7172 6.70593 78.0825 6.82982 78.5113 6.93788C78.9401 7.04595 79.3689 7.18043 79.7983 7.34385C80.2271 7.50727 80.5924 7.77876 80.8914 8.16101C81.1903 8.54319 81.3415 9.02032 81.3415 9.595C81.3415 10.4622 81.0156 11.1265 80.3673 11.5931C79.7189 12.0596 78.9083 12.2943 77.9368 12.2943C76.1975 12.2943 75.0113 11.6247 74.3788 10.2856L76.2769 9.22333C76.5262 9.95346 77.0792 10.3199 77.9368 10.3199C78.715 10.3199 79.1072 10.0773 79.1072 9.595C79.1072 9.37094 78.956 9.18642 78.657 9.04672C78.358 8.90702 77.9927 8.78045 77.564 8.66708C77.1345 8.55378 76.7057 8.41408 76.2769 8.24537C75.8481 8.07665 75.4829 7.81038 75.1839 7.44402C74.8842 7.07758 74.7337 6.62158 74.7337 6.06802C74.7337 5.23504 75.0409 4.58132 75.6575 4.10157C76.2741 3.62446 77.0392 3.38458 77.9527 3.38458C78.6411 3.38458 79.2687 3.5401 79.8322 3.84851C80.3963 4.15693 80.8437 4.59977 81.1724 5.17178L79.3081 6.18401C79.0381 5.60936 78.5859 5.32467 77.9527 5.32467C77.6696 5.32467 77.4369 5.38794 77.2484 5.50919C77.0634 5.63308 76.9681 5.80178 76.9681 6.0153V6.01793Z" fill="white"/>
<path d="M86.9303 3.61655V5.72007H85.4582V12.2178H83.2425V5.72007H81.7648V3.61655H83.2425V0.835571H85.4582V3.61655H86.9303Z" fill="white"/>
</g>
</svg>
